**ABCDEFGHIJKLMNOPQRSTUVWXYZabcdefghijklmnopqrstuvwxyz**************************
**PARASOLID !"#$%&'()*+,-./:;<=>?@[\]^_`{|}~0123456789**************************
**PART1;
MC=unknown;
MC_MODEL=unknown;
MC_ID=unknown;
OS=unknown;
OS_RELEASE=unknown;
FRU=Parasolid 37.1.212;
APPL=Onshape;
SITE=unknown;
USER=unknown;
FORMAT=text;
GUISE=transmit;
KEY=BTGapi::writeModels_.xmt;
FILE=BTGapi::writeModels_.xmt;
DATE=2025-12-26T15:29:36 (UTC);
**PART2;
SCH=SCH_3701212_37102;
USFLD_SIZE=0;
**PART3;
**END_OF_HEADER*****************************************************************
T51 : TRANSMIT FILE created by modeller version 370121223 SCH_3701212_37102_1300
6239 0 10 21 CCCCI7 lattice222 0 CCCI4 mesh1006 0 I8 polyline1008 0 CCCCCCCCCCA1
6 mesh_offset_data206 0 Z1 11 2 3 0 0 0 0 0 0 0 0 1e3 1e-8 0 0 0 1 0 1 4 0 81 25
5 1 2 2 5 1 6 0 0 0 7 70 11 CI9 list_type0 0 1 uI10 notransmit0 0 1 lCCCDCCDI12
 finger_index0 0 1 dI12 finger_block1012 0 CZ3 0 4 T1 0 0 3 20 1 8 8 11 255 4 9
 9 1 10 11 1 12 0 0 0 81 1 9 11 13 4 0 0 14 0 15 12 36 CCCI7 lattice222 0 CCCI4
 mesh1006 0 I8 polyline1008 0 CCCCCCCDI5 owner1040 0 CCCI16 boundary_lattice222
 0 CCCI13 boundary_mesh1006 0 I17 boundary_polyline1008 0 CCCA16 index_map_offse
t0 0 1 dA9 index_map82 0 A17 node_id_index_map82 0 A20 schema_embedding_map82 0
 A5 child12 0 A14 lowest_node_id0 0 1 dA16 mesh_offset_data206 0 Z10 96 16 17 0
 0 0 0 0 0 0 1e3 1e-8 4 0 18 1 0 1 2 19 0 20 21 0 0 0 22 23 0 0 0 0 0 0 0 0 100
 10 CCCCCCCCCA9 precision229 0 Z11 10 4 0 0 1 0 0 0 1 0 0 0 1 0 0 0 1 0 ?0 11 12
 6 14 1 24 25 1 27 4 0 0 81 1 14 8 13 12 0 0 30 9 29 12 24 138 26 28 0 0 0 0 0 0
 0 1e3 1e-8 12 18 0 1 0 1 2 34 0 35 32 0 0 0 33 31 0 0 0 0 0 0 0 0 100 25 7 12 0
 0 1 0 0 0 1 0 0 0 1 0 0 0 1 0 ?0 11 27 3 30 1 18 38 1 0 12 0 0 81 1 30 5 13 27
 0 0 0 14 40 12 18 136 36 39 0 0 0 0 0 0 0 1e3 1e-8 27 10 24 1 0 1 2 37 0 41 45
 0 0 0 43 42 0 0 0 0 0 0 0 0 100 38 4 27 0 0 1 0 0 0 1 0 0 0 1 0 0 0 1 0 ?0 81 1
 36 136 5 18 44 0 0 0 46 70 39 0 4 T18 0 0 3 20 1 50 50 13 255 37 108 0 18 0 48
 0 0 47 0 51 255 41 107 0 49 51 0 0 -0 1357444436429894e-33 .015 0 0 -1 .0221687
5 -1 0 0 31 255 45 84 0 55 52 0 0 +0 3061616997868385e-33 .01 0 0 1 1 0 0 .05 19
 9 CCCCCCI5 frame230 0 CA5 owner12 0 Z43 31 0 18 47 0 53 0 V0 16 255 42 25 0 ?54
 0 57 60 0 0 18 17 255 54 0 59 54 54 0 56 42 0 0 +16 57 20 0 ?58 42 61 62 0 0 18
 31 60 27 0 42 62 64 0 +0 3061616997868385e-33 .015 0 0 1 1 0 0 .05 31 62 22 0 5
7 63 60 0 +-.045 612323399573677e-34 .015 0 0 1 1 0 0 .001 31 64 87 0 65 60 67 0
 +0 1357444436429894e-33 .01 0 0 1 1 0 0 .02216875 16 65 79 0 ?70 69 0 64 0 0 18
 31 67 86 0 69 64 52 0 +.045 -2787244535680635e-34 .01 0 0 1 1 0 0 .001 16 69 75
 0 ?66 68 65 67 0 0 18 31 52 85 0 68 67 45 0 +-.045 612323399573677e-34 .01 0 0
 1 1 0 0 .001 16 68 71 0 ?72 55 69 52 0 0 18 17 72 0 75 72 72 0 74 68 0 0 +16 55
 67 0 ?71 73 68 45 0 0 18 17 71 0 76 71 71 0 80 55 0 0 +16 73 10 0 ?77 61 55 78
 0 0 18 17 77 0 79 77 77 0 82 73 0 0 +16 61 15 0 ?85 57 73 63 0 0 18 31 78 12 0
 73 0 63 0 +0 1357444436429894e-33 .015 0 0 1 1 0 0 .02216875 31 63 17 0 61 78 6
2 0 +.045 -2787244535680635e-34 .015 0 0 1 1 0 0 .001 17 85 0 84 85 85 0 81 61 0
 0 +15 255 84 96 0 85 83 89 17 81 0 90 81 81 0 85 61 0 0 -15 90 7 0 81 87 88 14
 255 87 1 0 ?86 93 95 37 91 +0 0 86 93 53 15 88 8 0 94 87 59 17 94 0 88 94 94 0
 58 57 0 0 -15 59 9 0 54 87 0 17 58 0 92 58 58 0 94 57 0 0 +15 92 92 0 58 48 96
 14 48 93 0 ?83 0 92 37 100 +0 0 83 0 53 15 96 94 0 74 48 0 17 74 0 96 74 74 0 7
2 68 0 0 -14 83 97 0 ?49 48 84 37 51 +0 0 49 48 53 51 100 105 0 48 98 51 0 --.04
5 612323399573677e-34 .015 0 0 -1 .001 -1 0 0 13 53 32 0 0 0 0 0 0 43 48 51 98 1
04 0 93 97 100 0 -0 3061616997868385e-33 .015 0 0 -1 .05 -1 0 0 51 51 106 0 83 1
00 41 0 -.045 -2787244535680635e-34 .015 0 0 -1 .001 -1 0 0 14 93 89 0 ?87 49 99
 37 98 -0 0 87 49 53 50 255 97 83 0 86 91 98 0 +0 0 .01 0 0 1 1 0 0 14 86 56 0 ?
0 87 101 37 97 -0 0 0 87 53 50 91 3 0 87 0 97 0 +0 0 .015 0 0 1 1 0 0 15 101 63
 0 70 86 105 17 70 0 101 70 70 0 103 65 0 0 +15 105 64 0 66 86 75 17 66 0 105 66
 66 0 102 69 0 0 +15 75 65 0 72 86 104 15 104 66 0 80 86 0 17 80 0 104 80 80 0 7
1 55 0 0 -17 102 0 89 102 102 0 66 69 0 0 -15 89 98 0 102 83 0 17 103 0 106 103
 103 0 70 65 0 0 -15 106 102 0 103 49 0 14 49 101 0 ?93 83 79 37 41 +0 0 93 83 5
3 15 79 100 0 77 49 106 15 99 88 0 56 93 76 17 56 0 99 56 56 0 54 42 0 0 -15 76
 90 0 71 93 0 15 95 6 0 82 87 90 17 82 0 95 82 82 0 77 73 0 0 -19 47 109 0 18 0
 43 37 0 S0 74 4 CI16 index_map_offset0 0 1 dCCZ20 50 3 0 0 110 44 36 0 0 0 0 0
 0 0 0 0 0 0 0 0 0 0 0 0 81 1 110 134 107 18 0 44 0 0 108 81 1 44 135 109 18 110
 36 0 0 112 80 7 CCCCCDI12 legal_owners0 17 1 lCZ1 109 5 115 8038 0 0 0 0 0 0 0
 0 0 TTTTTTTTTTTTTFTFT10 98 255 6 112 80 97 114 116 32 50 79 255 14 115 SDL/TYSA
_UNAME80 1 107 114 111 8040 0 0 0 0 3 5 0 0 0 TTTFFFFFFFFFFFFFF2 83 255 3 108 .6
47058823529412 .647058823529412 .647058823529412 79 17 111 SDL/TYSA_COLOUR_280 1
 5 113 116 8017 0 0 0 0 0 0 0 0 0 TTTTTTTTTTTTTFTFT3 84 255 6 46 Part 279 13 116
 SDL/TYSA_NAME80 1 13 117 119 9000 0 0 0 0 3 5 0 0 0 FTFFFFFFFFFFFFFFF3 84 17 40
 MuGKfOLnbLZ2Qw7CF79 14 119 BTI/InstanceId81 1 26 138 5 24 118 0 0 0 120 70 28 0
 4 T24 0 0 3 20 1 122 122 13 34 59 0 24 0 125 0 0 124 0 51 35 57 0 125 121 0 0 -
0 1357444436429894e-33 .015 0 0 -1 .02216875 -1 0 0 31 32 47 0 123 127 0 0 +0 13
57444436429894e-33 .01 0 0 1 1 0 0 .02216875 19 33 19 0 24 124 0 130 0 V0 16 31
 13 0 ?129 0 123 127 0 0 24 17 129 0 126 129 129 0 128 31 0 0 +16 123 38 0 ?131
 31 0 32 0 0 24 31 127 15 0 31 0 32 0 +0 1357444436429894e-33 .015 0 0 1 1 0 0 .
02216875 17 131 0 135 131 131 0 132 123 0 0 +15 135 51 0 131 125 0 17 132 0 133
 132 132 0 131 123 0 0 -15 133 37 0 132 134 0 14 134 32 0 ?0 137 133 34 121 -0 0
 0 137 130 14 137 1 0 ?134 125 126 34 140 +0 0 134 125 130 50 121 46 0 134 140 3
5 0 +0 0 .01 0 0 1 1 0 0 13 130 20 0 0 0 0 0 0 33 125 14 125 50 0 ?137 0 139 34
 35 -0 0 137 0 130 15 139 49 0 128 125 135 17 128 0 139 128 128 0 129 31 0 0 -50
 140 3 0 137 0 121 0 +0 0 .015 0 0 1 1 0 0 15 126 7 0 129 137 0 19 124 60 0 24 0
 33 34 0 S0 74 20 122 3 0 0 136 118 26 0 0 0 0 0 0 0 0 0 0 0 0 0 0 0 0 0 81 1 13
6 136 107 24 0 118 0 0 138 81 1 118 137 109 24 136 26 0 0 144 98 6 144 80 97 114
 116 32 51 83 3 138 .231372549019608 .380392156862745 .705882352941177 84 6 120
 Part 384 17 29 MhdDywbl8hclqDoGM81 1 16 96 5 10 145 0 0 0 142 70 17 0 4 T10 0 0
 3 20 1 143 143 13 19 62 0 10 0 141 0 0 148 0 51 20 61 0 141 150 0 0 -0 10512827
36643056e-33 .01 0 0 -1 .01716875 -1 0 0 31 21 50 0 146 149 0 0 +0 1357444436429
894e-33 0 0 0 1 1 0 0 .02216875 19 22 19 0 10 148 0 147 0 V0 16 23 13 0 ?151 0 1
55 153 0 0 10 17 151 0 152 151 151 0 154 23 0 0 +16 155 8 0 ?156 23 146 160 0 0
 10 31 153 15 0 23 160 149 0 +0 1357444436429894e-33 .01 0 0 1 1 0 0 .02216875 3
1 160 10 0 155 0 153 0 +0 1051282736643056e-33 .01 0 0 1 1 0 0 .01716875 31 149
 51 0 158 153 21 0 +0 1051282736643056e-33 0 0 0 1 1 0 0 .01716875 16 158 45 0 ?
157 146 0 149 0 0 10 17 157 0 159 157 157 0 161 158 0 0 +16 146 41 0 ?165 155 15
8 21 0 0 10 17 165 0 162 165 165 0 163 146 0 0 +15 162 54 0 165 164 0 17 163 0 1
67 163 163 0 165 146 0 0 -15 167 40 0 163 170 0 14 170 34 0 ?0 169 159 19 166 -0
 0 0 169 147 14 169 1 0 ?170 164 168 19 171 +0 0 170 164 147 15 159 39 0 157 170
 167 50 166 49 0 170 171 150 0 +0 0 0 0 0 1 1 0 0 13 147 20 0 0 0 0 0 0 22 141 1
4 141 57 0 ?164 0 172 19 20 +0 0 164 0 147 14 164 53 0 ?169 141 174 19 150 -0 0
 169 141 147 15 172 56 0 156 141 173 17 156 0 172 156 156 0 175 155 0 0 +15 173
 58 0 161 141 0 17 161 0 173 161 161 0 157 158 0 0 -17 175 0 168 175 175 0 156 1
55 0 0 -15 168 6 0 175 169 152 15 152 7 0 151 169 0 15 174 52 0 154 164 162 51 1
50 60 0 164 166 20 0 -0 1357444436429894e-33 .01 0 0 -1 .02216875 -1 0 0 17 154
 0 174 154 154 0 151 23 0 0 -50 171 3 0 169 0 166 0 +0 0 .01 0 0 1 1 0 0 19 148
 63 0 10 0 22 19 0 S0 74 20 143 3 0 0 177 145 16 0 0 0 0 0 0 0 0 0 0 0 0 0 0 0 0
 0 81 1 177 94 107 10 0 145 0 0 180 81 1 145 95 109 10 177 16 0 0 179 98 6 179 8
0 97 114 116 32 49 83 3 180 .615686274509804 .811764705882353 .929411764705882 8
4 6 142 Part 184 17 15 MlKY4l+ouxntog44Z74 20 8 3 0 0 6 2 9 0 0 0 0 0 0 0 0 0 0
 0 0 0 0 0 0 0 81 1 6 1 109 1 0 2 0 0 176 98 10 176 65 115 115 101 109 98 108 12
1 32 49 84 10 7 Assembly 11 0 
