**ABCDEFGHIJKLMNOPQRSTUVWXYZabcdefghijklmnopqrstuvwxyz**************************
**PARASOLID !"#$%&'()*+,-./:;<=>?@[\]^_`{|}~0123456789**************************
**PART1;
MC=unknown;
MC_MODEL=unknown;
MC_ID=unknown;
OS=unknown;
OS_RELEASE=unknown;
FRU=Parasolid 37.1.212;
APPL=Onshape;
SITE=unknown;
USER=unknown;
FORMAT=text;
GUISE=transmit;
KEY=BTGapi::writeModels_.xmt;
FILE=BTGapi::writeModels_.xmt;
DATE=2025-12-26T15:27:35 (UTC);
**PART2;
SCH=SCH_3701212_37102;
USFLD_SIZE=0;
**PART3;
**END_OF_HEADER*****************************************************************
T51 : TRANSMIT FILE created by modeller version 370121223 SCH_3701212_37102_1300
6239 0 12 36 CCCI7 lattice222 0 CCCI4 mesh1006 0 I8 polyline1008 0 CCCCCCCDI5 ow
ner1040 0 CCCI16 boundary_lattice222 0 CCCI13 boundary_mesh1006 0 I17 boundary_p
olyline1008 0 CCCA16 index_map_offset0 0 1 dA9 index_map82 0 A17 node_id_index_m
ap82 0 A20 schema_embedding_map82 0 A5 child12 0 A14 lowest_node_id0 0 1 dA16 me
sh_offset_data206 0 Z1 150 2 3 0 0 0 0 0 0 0 1e3 1e-8 0 4 0 1 0 1 2 5 0 6 7 0 0
 0 8 9 0 0 0 0 0 0 0 0 81 255 1 2 145 10 1 11 0 0 0 12 70 11 CI9 list_type0 0 1
 uI10 notransmit0 0 1 lCCCDCCDI12 finger_index0 0 1 dI12 finger_block1012 0 CZ3
 0 4 T1 0 0 5 20 1 13 13 13 255 5 62 0 1 0 14 0 0 15 0 51 255 6 60 0 14 16 0 0 -
0 367394039744206e-33 .004 0 0 -1 .006 -1 0 0 31 255 7 50 0 17 18 0 0 +0 3673940
39744206e-33 0 0 0 1 1 0 0 .006 19 9 CCCCCCI5 frame230 0 CA5 owner12 0 Z8 19 0 1
 15 0 19 0 V0 16 255 9 13 20 ?21 0 22 18 0 0 1 81 1 20 72 23 9 0 0 24 25 27 17 2
55 21 0 30 21 21 0 29 9 0 0 +16 22 8 26 ?28 9 17 34 0 0 1 31 18 15 0 9 34 7 0 +0
 367394039744206e-33 .004 0 0 1 1 0 0 .006 31 34 10 0 22 35 18 0 +0 183697019872
103e-33 .004 0 0 1 1 0 0 .003 31 35 128 0 32 0 34 0 +0 183697019872103e-33 .022
 0 0 1 1 0 0 .003 16 32 100 33 ?31 17 0 35 0 0 1 81 1 33 102 23 32 0 0 38 40 36
 17 31 0 39 31 31 0 37 32 0 0 +16 17 41 24 ?41 22 32 7 0 0 1 81 1 24 71 23 17 0
 0 0 20 45 17 41 0 43 41 41 0 42 17 0 0 +15 255 43 54 0 41 14 0 17 42 0 44 42 42
 0 41 17 0 0 -15 44 40 0 42 46 0 14 255 46 34 50 ?48 47 44 5 16 -0 0 48 47 19 81
 1 50 148 49 46 51 0 55 52 53 14 48 108 52 ?54 46 57 5 60 -0 0 54 46 19 14 47 1
 55 ?46 14 59 5 56 +0 0 46 14 19 50 255 16 49 0 46 56 6 0 +0 0 0 0 0 1 1 0 0 13
 19 20 0 0 0 0 0 0 8 14 14 14 53 58 ?47 0 61 5 6 -0 0 47 0 19 81 1 58 146 49 14
 38 0 0 55 62 15 61 52 0 29 14 43 17 29 0 61 29 29 0 21 9 0 0 -80 7 CCCCCDI12 le
gal_owners0 17 1 lCZ1 49 0 64 8001 0 0 0 0 3 5 0 0 0 FFFFTFTFFFFFFFFFF2 81 1 38
 76 23 14 0 58 25 33 63 81 1 55 147 49 47 25 0 58 50 65 83 255 3 62 .61568627450
9804 .811764705882353 .929411764705882 81 1 25 75 23 47 0 55 20 38 67 83 3 65 .6
15686274509804 .811764705882353 .929411764705882 80 1 23 70 69 9000 0 0 0 0 3 6
 0 0 0 FFTFTFTTFFFFFFFFF1 82 255 3 67 6 2 2 79 255 9 69 BTI/DetId82 3 63 6 3 2 7
9 15 64 SDL/TYSA_COLOUR50 56 3 0 47 60 16 0 +0 0 .004 0 0 1 1 0 0 51 60 123 0 48
 66 56 0 -0 183697019872103e-33 .022 0 0 -1 .003 -1 0 0 50 66 125 0 54 0 60 0 +0
 0 .022 0 0 1 1 0 0 14 54 113 68 ?0 48 39 5 66 +0 0 0 48 19 81 1 68 150 49 54 40
 0 52 0 75 15 39 116 0 31 54 0 81 1 40 115 23 54 0 68 33 71 73 81 1 52 149 49 48
 72 0 50 68 74 83 3 75 .615686274509804 .811764705882353 .929411764705882 81 1 7
2 142 23 48 0 52 51 0 76 83 3 74 .615686274509804 .811764705882353 .929411764705
882 81 1 51 141 23 46 0 50 26 72 80 82 3 76 8 1 2 81 1 26 140 23 22 0 0 71 51 77
 82 3 80 8 0 2 81 1 71 139 23 1 0 78 40 26 79 82 3 77 8 0 1 81 1 78 143 82 1 71
 11 0 0 85 82 3 79 6 0 3 80 1 82 84 81 8038 0 0 0 0 0 0 0 0 0 TTTTTTTTTTTTTFTFT1
0 81 1 11 144 84 1 78 2 0 0 83 98 255 6 85 80 97 114 116 32 49 80 1 84 89 90 801
7 0 0 0 0 0 0 0 0 0 TTTTTTTTTTTTTFTFT3 84 255 6 83 Part 179 13 90 SDL/TYSA_NAME7
9 14 81 SDL/TYSA_UNAME82 3 73 7 2 2 15 59 6 0 87 47 30 17 87 0 59 87 87 0 28 22
 0 0 -15 30 7 0 21 47 0 17 28 0 57 28 28 0 87 22 0 0 +15 57 111 0 28 48 88 15 88
 112 0 37 48 0 17 37 0 88 37 37 0 31 32 0 0 -83 3 53 .615686274509804 .811764705
882353 .929411764705882 82 3 45 6 2 1 82 3 36 7 1 1 82 3 27 6 3 1 19 15 63 0 1 0
 8 5 0 S0 74 4 CI16 index_map_offset0 0 1 dCCZ20 13 5 0 0 72 78 11 2 68 0 0 0 0
 0 0 0 0 0 0 0 0 0 0 0 80 1 10 49 86 8040 0 0 0 0 3 5 0 0 0 TTTFFFFFFFFFFFFFF2 8
3 3 12 .615686274509804 .811764705882353 .929411764705882 79 17 86 SDL/TYSA_COLO
UR_21 0 
